<svg width="202" height="202" viewBox="0 0 202 202" fill="none" xmlns="http://www.w3.org/2000/svg">
<g clip-path="url(#clip0_2045_1102)">
<path d="M101 202C156.781 202 202 156.781 202 101C202 45.2192 156.781 0 101 0C45.2192 0 0 45.2192 0 101C0 156.781 45.2192 202 101 202Z" fill="url(#paint0_radial_2045_1102)"/>
<path d="M101 168.118C136.918 168.118 166.036 139 166.036 103.082C166.036 67.1635 136.918 38.0459 101 38.0459C65.0816 38.0459 35.964 67.1635 35.964 103.082C35.964 139 65.0816 168.118 101 168.118Z" fill="white"/>
<path d="M101 168.555C64.8961 168.555 35.5267 139.186 35.5267 103.082C35.5267 66.9778 64.8961 37.6084 101 37.6084C137.104 37.6084 166.473 66.9778 166.473 103.082C166.473 139.186 137.104 168.555 101 168.555ZM101 38.483C65.3859 38.483 36.4013 67.4676 36.4013 103.082C36.4013 138.696 65.3859 167.68 101 167.68C136.614 167.68 165.599 138.696 165.599 103.082C165.599 67.4676 136.614 38.483 101 38.483Z" fill="#FF7800"/>
<path d="M133.501 50.7627C143.051 60.5408 148.946 73.9049 148.946 88.6508C148.946 118.597 124.667 142.877 94.7203 142.877C72.8551 142.877 54.0159 129.932 45.4448 111.303L41.5615 112.108C46.8441 139.833 71.1933 160.806 100.475 160.806C133.605 160.806 160.456 133.956 160.456 100.825C160.456 79.9047 149.733 61.4854 133.501 50.7627Z" fill="#E6E7E8"/>
<path d="M67.6249 147.389C75.4017 147.389 81.7061 141.085 81.7061 133.308C81.7061 125.531 75.4017 119.227 67.6249 119.227C59.848 119.227 53.5436 125.531 53.5436 133.308C53.5436 141.085 59.848 147.389 67.6249 147.389Z" fill="#FFF4DF"/>
<path d="M86.9363 122.585C94.7131 122.585 101.017 116.281 101.017 108.504C101.017 100.727 94.7131 94.4229 86.9363 94.4229C79.1594 94.4229 72.855 100.727 72.855 108.504C72.855 116.281 79.1594 122.585 86.9363 122.585Z" fill="#FF2A00"/>
<path d="M99.3033 154.456C107.08 154.456 113.384 148.152 113.384 140.375C113.384 132.598 107.08 126.294 99.3033 126.294C91.5264 126.294 85.222 132.598 85.222 140.375C85.222 148.152 91.5264 154.456 99.3033 154.456Z" fill="#FF7800"/>
<path d="M119.297 125.297C127.074 125.297 133.378 118.992 133.378 111.216C133.378 103.439 127.074 97.1343 119.297 97.1343C111.52 97.1343 105.216 103.439 105.216 111.216C105.216 118.992 111.52 125.297 119.297 125.297Z" fill="#FFF4DF"/>
<path d="M131.874 153.424C139.651 153.424 145.955 147.12 145.955 139.343C145.955 131.566 139.651 125.262 131.874 125.262C124.097 125.262 117.793 131.566 117.793 139.343C117.793 147.12 124.097 153.424 131.874 153.424Z" fill="#FF2A00"/>
<path d="M146.392 108.522C154.169 108.522 160.473 102.217 160.473 94.4406C160.473 86.6638 154.169 80.3594 146.392 80.3594C138.615 80.3594 132.311 86.6638 132.311 94.4406C132.311 102.217 138.615 108.522 146.392 108.522Z" fill="#FF7800"/>
<path d="M53.5437 120.556C61.3205 120.556 67.6249 114.252 67.6249 106.475C67.6249 98.6984 61.3205 92.394 53.5437 92.394C45.7668 92.394 39.4624 98.6984 39.4624 106.475C39.4624 114.252 45.7668 120.556 53.5437 120.556Z" fill="#FF7800"/>
<path d="M148.666 153.25L154.894 185.121C155.541 188.427 153.004 191.488 149.646 191.488H52.3717C49.0132 191.488 46.4768 188.409 47.124 185.121L53.3512 153.25C53.841 150.731 56.045 148.929 58.5989 148.929H143.419C145.972 148.929 148.176 150.748 148.666 153.25Z" fill="#FF7800"/>
<path d="M149.646 191.942H52.3717C50.64 191.942 49.0132 191.173 47.9112 189.826C46.8092 188.479 46.3719 186.747 46.7042 185.033L52.9314 153.162C53.4562 150.451 55.8526 148.492 58.6164 148.492H143.436C146.2 148.492 148.579 150.451 149.121 153.162L155.348 185.033C155.681 186.73 155.243 188.479 154.141 189.826C153.039 191.173 151.413 191.942 149.681 191.942H149.646ZM58.5989 149.366C56.2549 149.366 54.2259 151.028 53.7885 153.337L47.5613 185.208C47.2814 186.66 47.6488 188.129 48.5934 189.266C49.5379 190.403 50.9198 191.05 52.3892 191.05H149.663C151.133 191.05 152.515 190.403 153.459 189.266C154.404 188.129 154.771 186.642 154.491 185.208L148.264 153.337C147.809 151.046 145.78 149.366 143.454 149.366H58.6339H58.5989Z" fill="#F15A29"/>
<path d="M154.893 185.138L148.666 153.267C148.176 150.748 145.972 148.946 143.419 148.946H143.104C143.139 149.069 143.191 149.191 143.209 149.314L149.436 181.184C150.083 184.49 147.547 187.552 144.188 187.552H47.2115C47.8237 189.791 49.8528 191.505 52.3717 191.505H149.646C153.004 191.505 155.541 188.426 154.893 185.138Z" fill="#BF5802"/>
<path d="M103.064 185.365C110.483 185.365 116.498 179.35 116.498 171.931C116.498 164.512 110.483 158.497 103.064 158.497C95.6447 158.497 89.6301 164.512 89.6301 171.931C89.6301 179.35 95.6447 185.365 103.064 185.365Z" fill="#BF5802"/>
<path d="M101 183.231C108.188 183.231 114.014 177.404 114.014 170.217C114.014 163.029 108.188 157.203 101 157.203C93.8125 157.203 87.9858 163.029 87.9858 170.217C87.9858 177.404 93.8125 183.231 101 183.231Z" fill="#FFF4DF"/>
<path d="M104.619 162.363L93.1527 173.829C91.9778 175.004 91.975 176.906 93.1466 178.078C94.3181 179.249 96.2203 179.247 97.3953 178.072L108.861 166.606C110.036 165.431 110.039 163.529 108.867 162.357C107.696 161.185 105.794 161.188 104.619 162.363Z" fill="#FF7800"/>
</g>
<defs>
<radialGradient id="paint0_radial_2045_1102" cx="0" cy="0" r="1" gradientUnits="userSpaceOnUse" gradientTransform="translate(101 101) scale(101)">
<stop stop-color="#FFBA00"/>
<stop offset="1" stop-color="#FFA000" stop-opacity="0"/>
</radialGradient>
<clipPath id="clip0_2045_1102">
<rect width="202" height="202" fill="white"/>
</clipPath>
</defs>
</svg>
