<svg width="31" height="29" viewBox="0 0 31 29" fill="none" xmlns="http://www.w3.org/2000/svg">
<g filter="url(#filter0_d_1548_42)">
<path d="M24.8593 3.03337C24.2541 2.38873 23.5355 1.87736 22.7446 1.52847C21.9537 1.17958 21.1059 1 20.2498 1C19.3937 1 18.546 1.17958 17.7551 1.52847C16.9642 1.87736 16.2456 2.38873 15.6404 3.03337L14.7487 3.9826C14.5513 4.19284 14.2173 4.19284 14.0199 3.9826L13.1282 3.03337C11.9057 1.73186 10.2477 1.00067 8.51878 1.00067C6.78989 1.00067 5.13181 1.73186 3.90931 3.03337C2.6868 4.33488 2 6.10011 2 7.94072C2 9.78133 2.6868 11.5466 3.90931 12.8481L14.0199 23.612C14.2173 23.8222 14.5513 23.8222 14.7487 23.612L24.8593 12.8481C25.4648 12.2037 25.9451 11.4387 26.2728 10.5967C26.6006 9.75467 26.7692 8.85216 26.7692 7.94072C26.7692 7.02928 26.6006 6.12677 26.2728 5.28475C25.9451 4.44273 25.4648 3.6777 24.8593 3.03337Z" fill="#FF7800"/>
<path d="M24.8593 3.03337C24.2541 2.38873 23.5355 1.87736 22.7446 1.52847C21.9537 1.17958 21.1059 1 20.2498 1C19.3937 1 18.546 1.17958 17.7551 1.52847C16.9642 1.87736 16.2456 2.38873 15.6404 3.03337L14.7487 3.9826C14.5513 4.19284 14.2173 4.19284 14.0199 3.9826L13.1282 3.03337C11.9057 1.73186 10.2477 1.00067 8.51878 1.00067C6.78989 1.00067 5.13181 1.73186 3.90931 3.03337C2.6868 4.33488 2 6.10011 2 7.94072C2 9.78133 2.6868 11.5466 3.90931 12.8481L14.0199 23.612C14.2173 23.8222 14.5513 23.8222 14.7487 23.612L24.8593 12.8481C25.4648 12.2037 25.9451 11.4387 26.2728 10.5967C26.6006 9.75467 26.7692 8.85216 26.7692 7.94072C26.7692 7.02928 26.6006 6.12677 26.2728 5.28475C25.9451 4.44273 25.4648 3.6777 24.8593 3.03337Z" stroke="#FF7800" stroke-linecap="round" stroke-linejoin="round"/>
</g>
<defs>
<filter id="filter0_d_1548_42" x="0.5" y="0.5" width="29.7693" height="27.7697" filterUnits="userSpaceOnUse" color-interpolation-filters="sRGB">
<feFlood flood-opacity="0" result="BackgroundImageFix"/>
<feColorMatrix in="SourceAlpha" type="matrix" values="0 0 0 0 0 0 0 0 0 0 0 0 0 0 0 0 0 0 127 0" result="hardAlpha"/>
<feOffset dx="1" dy="2"/>
<feGaussianBlur stdDeviation="1"/>
<feComposite in2="hardAlpha" operator="out"/>
<feColorMatrix type="matrix" values="0 0 0 0 0 0 0 0 0 0 0 0 0 0 0 0 0 0 0.25 0"/>
<feBlend mode="normal" in2="BackgroundImageFix" result="effect1_dropShadow_1548_42"/>
<feBlend mode="normal" in="SourceGraphic" in2="effect1_dropShadow_1548_42" result="shape"/>
</filter>
</defs>
</svg>
