<svg width="19" height="19" viewBox="0 0 19 19" fill="none" xmlns="http://www.w3.org/2000/svg">
<path d="M8.31766 0.794207C8.39854 0.615111 8.57683 0.5 8.77334 0.5C9.5906 0.5 10.376 0.819425 10.9563 1.3905C11.5368 1.96185 11.8645 2.73847 11.8645 3.54998V6.44996H16.2504C16.5711 6.44681 16.8888 6.51207 17.1819 6.64152C17.4759 6.77139 17.7384 6.96289 17.9508 7.20327C18.1632 7.44369 18.3204 7.72721 18.4111 8.03439C18.5017 8.3416 18.5234 8.6647 18.4746 8.98116L17.2827 16.6311C17.2014 17.1575 16.9298 17.6362 16.5202 17.9788C16.1114 18.3208 15.5924 18.5051 15.0585 18.4999H2.72741C2.13922 18.4999 1.57355 18.27 1.15523 17.8583C0.736649 17.4464 0.5 16.886 0.5 16.2999V10.3499C0.5 9.76386 0.736649 9.20344 1.15523 8.7915C1.57355 8.37982 2.13922 8.14995 2.72741 8.14995H4.99571L8.31766 0.794207Z" fill="#FF7800"/>
<mask id="mask0_169_120" style="mask-type:alpha" maskUnits="userSpaceOnUse" x="0" y="0" width="19" height="19">
<path d="M8.31766 0.794207C8.39854 0.615111 8.57683 0.5 8.77334 0.5C9.5906 0.5 10.376 0.819425 10.9563 1.3905C11.5368 1.96185 11.8645 2.73847 11.8645 3.54998V6.44996H16.2504C16.5711 6.44681 16.8888 6.51207 17.1819 6.64152C17.4759 6.77139 17.7384 6.96289 17.9508 7.20327C18.1632 7.44369 18.3204 7.72721 18.4111 8.03439C18.5017 8.3416 18.5234 8.6647 18.4746 8.98116L17.2827 16.6311C17.2014 17.1575 16.9298 17.6362 16.5202 17.9788C16.1114 18.3208 15.5924 18.5051 15.0585 18.4999H2.72741C2.13922 18.4999 1.57355 18.27 1.15523 17.8583C0.736649 17.4464 0.5 16.886 0.5 16.2999V10.3499C0.5 9.76386 0.736649 9.20344 1.15523 8.7915C1.57355 8.37982 2.13922 8.14995 2.72741 8.14995H4.99571L8.31766 0.794207Z" fill="#FF7800"/>
</mask>
<g mask="url(#mask0_169_120)">
<path fill-rule="evenodd" clip-rule="evenodd" d="M6.06852 4.5V18.75H4.56852L4.56852 4.5H6.06852Z" fill="white"/>
</g>
</svg>
