<svg width="30" height="29" viewBox="0 0 30 29" fill="none" xmlns="http://www.w3.org/2000/svg">
<g filter="url(#filter0_d_177_338)">
<path d="M24.5901 3.03337C23.9848 2.38873 23.2663 1.87736 22.4753 1.52847C21.6844 1.17958 20.8367 1 19.9806 1C19.1245 1 18.2768 1.17958 17.4858 1.52847C16.6949 1.87736 15.9763 2.38873 15.3711 3.03337L14.4795 3.9826C14.282 4.19284 13.9481 4.19284 13.7506 3.9826L12.859 3.03337C11.6365 1.73186 9.97844 1.00067 8.24955 1.00067C6.52066 1.00067 4.86259 1.73186 3.64008 3.03337C2.41757 4.33488 1.73077 6.10011 1.73077 7.94072C1.73077 9.78133 2.41757 11.5466 3.64008 12.8481L13.7506 23.612C13.9481 23.8222 14.282 23.8222 14.4795 23.612L24.5901 12.8481C25.1956 12.2037 25.6759 11.4387 26.0036 10.5967C26.3313 9.75467 26.5 8.85216 26.5 7.94072C26.5 7.02928 26.3313 6.12677 26.0036 5.28475C25.6759 4.44273 25.1956 3.6777 24.5901 3.03337Z" fill="#FF7800"/>
<path d="M24.5901 3.03337C23.9848 2.38873 23.2663 1.87736 22.4753 1.52847C21.6844 1.17958 20.8367 1 19.9806 1C19.1245 1 18.2768 1.17958 17.4858 1.52847C16.6949 1.87736 15.9763 2.38873 15.3711 3.03337L14.4795 3.9826C14.282 4.19284 13.9481 4.19284 13.7506 3.9826L12.859 3.03337C11.6365 1.73186 9.97844 1.00067 8.24955 1.00067C6.52066 1.00067 4.86259 1.73186 3.64008 3.03337C2.41757 4.33488 1.73077 6.10011 1.73077 7.94072C1.73077 9.78133 2.41757 11.5466 3.64008 12.8481L13.7506 23.612C13.9481 23.8222 14.282 23.8222 14.4795 23.612L24.5901 12.8481C25.1956 12.2037 25.6759 11.4387 26.0036 10.5967C26.3313 9.75467 26.5 8.85216 26.5 7.94072C26.5 7.02928 26.3313 6.12677 26.0036 5.28475C25.6759 4.44273 25.1956 3.6777 24.5901 3.03337Z" stroke="#FF7800" stroke-linecap="round" stroke-linejoin="round"/>
</g>
<defs>
<filter id="filter0_d_177_338" x="0.230774" y="0.5" width="29.7692" height="27.7697" filterUnits="userSpaceOnUse" color-interpolation-filters="sRGB">
<feFlood flood-opacity="0" result="BackgroundImageFix"/>
<feColorMatrix in="SourceAlpha" type="matrix" values="0 0 0 0 0 0 0 0 0 0 0 0 0 0 0 0 0 0 127 0" result="hardAlpha"/>
<feOffset dx="1" dy="2"/>
<feGaussianBlur stdDeviation="1"/>
<feComposite in2="hardAlpha" operator="out"/>
<feColorMatrix type="matrix" values="0 0 0 0 0 0 0 0 0 0 0 0 0 0 0 0 0 0 0.25 0"/>
<feBlend mode="normal" in2="BackgroundImageFix" result="effect1_dropShadow_177_338"/>
<feBlend mode="normal" in="SourceGraphic" in2="effect1_dropShadow_177_338" result="shape"/>
</filter>
</defs>
</svg>
