<svg width="27" height="25" viewBox="0 0 27 25" fill="none" xmlns="http://www.w3.org/2000/svg">
<path d="M13.4333 0C6.00793 0 0 4.79014 0 10.6827C0 14.5017 2.5098 17.8482 6.29402 19.738C6.08595 20.4598 4.96759 24.3444 4.92858 24.6463C4.92858 24.6463 4.90257 24.8825 5.04562 24.9612C5.18866 25.04 5.37072 24.9744 5.37072 24.9744C5.78685 24.9087 10.2733 21.7459 11.0405 21.1947C11.8208 21.2997 12.614 21.3654 13.4203 21.3654C20.8327 21.3654 26.8536 16.5752 26.8536 10.6827C26.8536 4.79014 20.8457 0 13.4333 0Z" fill="#010101"/>
<path d="M6.00804 14.423C5.5789 14.423 5.22779 14.0817 5.22779 13.6749V9.02912H4.0184C3.60227 9.02912 3.26416 8.68791 3.26416 8.26795C3.26416 7.84799 3.60227 7.50678 4.0184 7.50678H7.98467C8.40081 7.50678 8.73891 7.84799 8.73891 8.26795C8.73891 8.68791 8.40081 9.02912 7.98467 9.02912H6.77529V13.6749C6.77529 14.0817 6.42417 14.423 5.99504 14.423H6.00804ZM12.8092 14.423C12.4841 14.423 12.237 14.2917 12.159 14.0817L11.7689 13.0712H9.40213L9.012 14.0817C8.93398 14.2917 8.6869 14.423 8.36179 14.423C8.19274 14.423 8.02368 14.3836 7.86764 14.318C7.65957 14.213 7.4515 13.9505 7.68558 13.2025L9.54517 8.28107C9.67521 7.90049 10.0783 7.5199 10.5725 7.50678C11.0797 7.50678 11.4698 7.90049 11.5998 8.28107L13.4464 13.2025C13.6805 13.9374 13.4724 14.213 13.2644 14.318C13.1083 14.3836 12.9393 14.423 12.7702 14.423H12.8092ZM11.3788 11.6801L10.5985 9.4622L9.81826 11.6801H11.3658H11.3788ZM14.7338 14.318C14.3307 14.318 13.9926 13.9899 13.9926 13.5962V8.28107C13.9926 7.84799 14.3437 7.49365 14.7859 7.49365C15.228 7.49365 15.5791 7.84799 15.5791 8.28107V12.8744H17.2306C17.6338 12.8744 17.9719 13.2025 17.9719 13.5962C17.9719 13.9899 17.6338 14.318 17.2306 14.318H14.7468H14.7338ZM19.0382 14.423C18.6091 14.423 18.258 14.0686 18.258 13.6355V8.28107C18.258 7.84799 18.6091 7.49365 19.0382 7.49365C19.4674 7.49365 19.8185 7.84799 19.8185 8.28107V9.9609L21.9772 7.78237C22.0942 7.66426 22.2372 7.61177 22.4063 7.61177C22.6014 7.61177 22.7964 7.69051 22.9395 7.84799C23.0695 7.97923 23.1605 8.16296 23.1735 8.34669C23.1735 8.53042 23.1215 8.70103 23.0045 8.81914L21.2359 10.604L23.1475 13.15C23.2776 13.3206 23.3296 13.5174 23.2906 13.7274C23.2646 13.9374 23.1605 14.1211 22.9915 14.2392C22.8614 14.3442 22.6924 14.3967 22.5233 14.3967C22.2763 14.3967 22.0552 14.2786 21.8991 14.0817L20.0785 11.6539L19.8055 11.9295V13.6355C19.8055 14.0686 19.4543 14.423 19.0252 14.423H19.0382Z" fill="#FFEB02"/>
</svg>
