<svg width="199" height="27" viewBox="0 0 199 27" fill="none" xmlns="http://www.w3.org/2000/svg">
<path d="M22.02 21H15.36L18.12 8.04L11.01 21H6.93L5.58 7.59L2.7 21H0L4.05 1.95H11.7L12.63 12.69L18.39 1.95H26.1L22.02 21ZM31.8079 14.97C31.7279 15.41 31.6679 15.83 31.6279 16.23C31.6079 16.63 31.5979 16.99 31.5979 17.31C31.5979 17.49 31.6079 17.69 31.6279 17.91C31.6479 18.13 31.6879 18.34 31.7479 18.54C31.8279 18.72 31.9279 18.88 32.0479 19.02C32.1879 19.14 32.3779 19.2 32.6179 19.2C32.7979 19.2 32.9979 19.14 33.2179 19.02C33.4579 18.9 33.6879 18.73 33.9079 18.51C34.1479 18.29 34.3679 18.02 34.5679 17.7C34.7879 17.38 34.9579 17.02 35.0779 16.62H39.9979L39.2179 19.83C38.8179 20.09 38.3579 20.31 37.8379 20.49C37.3179 20.67 36.7679 20.82 36.1879 20.94C35.6079 21.04 35.0179 21.11 34.4179 21.15C33.8179 21.21 33.2479 21.24 32.7079 21.24C31.7079 21.24 30.7779 21.15 29.9179 20.97C29.0579 20.79 28.3079 20.48 27.6679 20.04C27.0279 19.6 26.5179 19.02 26.1379 18.3C25.7779 17.56 25.5979 16.65 25.5979 15.57C25.5979 14.59 25.7479 13.63 26.0479 12.69C26.3679 11.75 26.8879 10.92 27.6079 10.2C28.3479 9.46 29.3279 8.87 30.5479 8.43C31.7879 7.99 33.3279 7.77 35.1679 7.77C37.1679 7.77 38.6679 8.08 39.6679 8.7C40.6879 9.32 41.1979 10.29 41.1979 11.61C41.1979 12.15 41.1179 12.74 40.9579 13.38C40.7979 14 40.5579 14.53 40.2379 14.97H31.8079ZM35.7979 11.4C35.7979 10.78 35.6979 10.36 35.4979 10.14C35.2979 9.92 35.0579 9.81 34.7779 9.81C34.4579 9.81 34.1579 9.92 33.8779 10.14C33.6179 10.34 33.3779 10.62 33.1579 10.98C32.9379 11.32 32.7379 11.72 32.5579 12.18C32.3779 12.62 32.2279 13.09 32.1079 13.59H35.5279C35.5679 13.35 35.6079 13.1 35.6479 12.84C35.6879 12.62 35.7179 12.38 35.7379 12.12C35.7779 11.86 35.7979 11.62 35.7979 11.4ZM49.8453 10.02C50.2653 9.62 50.7353 9.25 51.2553 8.91C51.7153 8.63 52.2553 8.37 52.8753 8.13C53.4953 7.89 54.1853 7.77 54.9453 7.77C55.9853 7.77 56.8453 8.04 57.5253 8.58C58.2053 9.1 58.5453 9.82 58.5453 10.74C58.5453 11 58.5153 11.32 58.4553 11.7C58.3953 12.06 58.3253 12.44 58.2453 12.84C58.1653 13.24 58.0753 13.65 57.9753 14.07C57.8953 14.47 57.8253 14.83 57.7653 15.15L56.5053 21H50.4153L52.0653 13.17C52.1053 12.91 52.1553 12.65 52.2153 12.39C52.2753 12.11 52.3053 11.86 52.3053 11.64C52.3053 11.34 52.2253 11.1 52.0653 10.92C51.9253 10.72 51.7053 10.62 51.4053 10.62C51.0453 10.62 50.6953 10.75 50.3553 11.01C50.0353 11.27 49.7853 11.49 49.6053 11.67L47.6253 21H41.5053L44.2353 8.1H49.1253L49.6653 10.02H49.8453ZM70.7046 8.1H76.8246L74.0646 21H69.2046L68.6646 19.08H68.4846C67.9646 19.7 67.2546 20.22 66.3546 20.64C65.4746 21.04 64.5846 21.24 63.6846 21.24C62.4846 21.24 61.5446 20.94 60.8646 20.34C60.1846 19.72 59.8446 18.92 59.8446 17.94C59.8446 17.44 59.9246 16.82 60.0846 16.08C60.2646 15.32 60.4246 14.61 60.5646 13.95L61.8246 8.1H67.9146L66.4146 15.12C66.3746 15.28 66.3346 15.47 66.2946 15.69C66.2546 15.91 66.2146 16.13 66.1746 16.35C66.1346 16.55 66.0946 16.75 66.0546 16.95C66.0346 17.13 66.0246 17.28 66.0246 17.4C66.0246 17.7 66.0846 17.96 66.2046 18.18C66.3446 18.38 66.5846 18.48 66.9246 18.48C67.2846 18.48 67.6246 18.36 67.9446 18.12C68.2646 17.88 68.5146 17.65 68.6946 17.43L70.7046 8.1ZM101.758 6.48C101.758 7.66 101.428 8.75 100.768 9.75C100.108 10.75 99.0179 11.51 97.4979 12.03L100.978 21H94.2879L91.6479 12.69H91.3179L89.5479 21H83.0679L87.1179 1.95H95.0079C95.9279 1.95 96.7979 2.01 97.6179 2.13C98.4379 2.23 99.1479 2.45 99.7479 2.79C100.368 3.11 100.858 3.57 101.218 4.17C101.578 4.75 101.758 5.52 101.758 6.48ZM93.1179 10.77C93.6379 10.77 94.0779 10.6 94.4379 10.26C94.8179 9.9 95.1179 9.47 95.3379 8.97C95.5779 8.47 95.7479 7.94 95.8479 7.38C95.9479 6.8 95.9979 6.3 95.9979 5.88C95.9979 5.36 95.9079 4.92 95.7279 4.56C95.5479 4.18 95.1579 3.99 94.5579 3.99H93.2079L91.7079 10.77H93.1179ZM104.343 9.21C105.363 8.71 106.403 8.35 107.463 8.13C108.543 7.89 109.743 7.77 111.063 7.77C112.343 7.77 113.403 7.87 114.243 8.07C115.083 8.27 115.753 8.56 116.253 8.94C116.753 9.32 117.103 9.77 117.303 10.29C117.503 10.81 117.603 11.4 117.603 12.06C117.603 12.44 117.573 12.85 117.513 13.29C117.473 13.73 117.423 14.1 117.363 14.4L115.953 21H111.123L110.583 19.08H110.403C109.763 19.78 109.013 20.32 108.153 20.7C107.313 21.06 106.473 21.24 105.633 21.24C105.153 21.24 104.683 21.17 104.223 21.03C103.763 20.89 103.353 20.68 102.993 20.4C102.633 20.1 102.343 19.73 102.123 19.29C101.903 18.83 101.793 18.28 101.793 17.64C101.793 16.6 102.073 15.78 102.633 15.18C103.213 14.56 103.963 14.1 104.883 13.8C105.823 13.48 106.873 13.28 108.033 13.2C109.213 13.12 110.393 13.08 111.573 13.08C111.613 12.88 111.663 12.6 111.723 12.24C111.783 11.86 111.813 11.53 111.813 11.25C111.813 10.89 111.713 10.56 111.513 10.26C111.333 9.94 110.943 9.78 110.343 9.78C109.643 9.78 109.123 9.99 108.783 10.41C108.463 10.81 108.253 11.3 108.153 11.88H103.773L104.343 9.21ZM111.243 14.49H110.703C110.123 14.49 109.623 14.57 109.203 14.73C108.803 14.87 108.473 15.06 108.213 15.3C107.973 15.54 107.793 15.81 107.673 16.11C107.553 16.41 107.493 16.71 107.493 17.01C107.493 17.49 107.613 17.85 107.853 18.09C108.113 18.33 108.413 18.45 108.753 18.45C109.173 18.45 109.583 18.3 109.983 18C110.403 17.7 110.663 17.3 110.763 16.8L111.243 14.49ZM126.907 10.02C127.327 9.62 127.797 9.25 128.317 8.91C128.777 8.63 129.317 8.37 129.937 8.13C130.557 7.89 131.247 7.77 132.007 7.77C133.047 7.77 133.907 8.04 134.587 8.58C135.267 9.1 135.607 9.82 135.607 10.74C135.607 11 135.577 11.32 135.517 11.7C135.457 12.06 135.387 12.44 135.307 12.84C135.227 13.24 135.137 13.65 135.037 14.07C134.957 14.47 134.887 14.83 134.827 15.15L133.567 21H127.477L129.127 13.17C129.167 12.91 129.217 12.65 129.277 12.39C129.337 12.11 129.367 11.86 129.367 11.64C129.367 11.34 129.287 11.1 129.127 10.92C128.987 10.72 128.767 10.62 128.467 10.62C128.107 10.62 127.757 10.75 127.417 11.01C127.097 11.27 126.847 11.49 126.667 11.67L124.687 21H118.567L121.297 8.1H126.187L126.727 10.02H126.907ZM143.987 13.56L150.977 8.1H154.937L148.967 12.99L153.437 21H146.717L143.657 14.97L142.397 21H136.277L140.537 0.839998H146.687L143.987 13.56ZM160.457 21H154.367L157.097 8.1H163.247L160.457 21ZM164.027 4.17C164.027 4.63 163.927 5.03 163.727 5.37C163.547 5.71 163.297 6 162.977 6.24C162.677 6.48 162.327 6.66 161.927 6.78C161.527 6.9 161.117 6.96 160.697 6.96C159.897 6.96 159.227 6.77 158.687 6.39C158.147 6.01 157.877 5.41 157.877 4.59C157.877 4.15 157.967 3.76 158.147 3.42C158.327 3.06 158.567 2.77 158.867 2.55C159.187 2.31 159.547 2.13 159.947 2.01C160.367 1.89 160.797 1.83 161.237 1.83C162.017 1.83 162.677 2.02 163.217 2.4C163.757 2.78 164.027 3.37 164.027 4.17ZM171.627 10.02C172.047 9.62 172.517 9.25 173.037 8.91C173.497 8.63 174.037 8.37 174.657 8.13C175.277 7.89 175.967 7.77 176.727 7.77C177.767 7.77 178.627 8.04 179.307 8.58C179.987 9.1 180.327 9.82 180.327 10.74C180.327 11 180.297 11.32 180.237 11.7C180.177 12.06 180.107 12.44 180.027 12.84C179.947 13.24 179.857 13.65 179.757 14.07C179.677 14.47 179.607 14.83 179.547 15.15L178.287 21H172.197L173.847 13.17C173.887 12.91 173.937 12.65 173.997 12.39C174.057 12.11 174.087 11.86 174.087 11.64C174.087 11.34 174.007 11.1 173.847 10.92C173.707 10.72 173.487 10.62 173.187 10.62C172.827 10.62 172.477 10.75 172.137 11.01C171.817 11.27 171.567 11.49 171.387 11.67L169.407 21H163.287L166.017 8.1H170.907L171.447 10.02H171.627ZM193.536 8.1H198.396L195.936 19.77C195.756 20.67 195.456 21.5 195.036 22.26C194.616 23.02 194.026 23.68 193.266 24.24C192.526 24.8 191.586 25.24 190.446 25.56C189.326 25.88 187.956 26.04 186.336 26.04C186.036 26.04 185.676 26.03 185.256 26.01C184.836 26.01 184.406 26 183.966 25.98C183.526 25.98 183.106 25.97 182.706 25.95C182.306 25.93 181.986 25.91 181.746 25.89L182.316 23.73C182.956 23.83 183.606 23.88 184.266 23.88C184.946 23.9 185.526 23.91 186.006 23.91C186.606 23.91 187.106 23.85 187.506 23.73C187.926 23.63 188.266 23.46 188.526 23.22C188.806 22.98 189.026 22.66 189.186 22.26C189.366 21.86 189.506 21.37 189.606 20.79L189.966 18.84H189.756C189.636 19.02 189.456 19.24 189.216 19.5C188.996 19.74 188.706 19.98 188.346 20.22C187.986 20.44 187.556 20.63 187.056 20.79C186.576 20.93 186.026 21 185.406 21C184.706 21 184.106 20.9 183.606 20.7C183.126 20.48 182.736 20.19 182.436 19.83C182.136 19.45 181.916 19.01 181.776 18.51C181.636 17.99 181.566 17.43 181.566 16.83C181.566 16.57 181.586 16.17 181.626 15.63C181.666 15.09 181.756 14.48 181.896 13.8C182.056 13.12 182.276 12.43 182.556 11.73C182.856 11.01 183.246 10.36 183.726 9.78C184.226 9.2 184.836 8.72 185.556 8.34C186.296 7.96 187.186 7.77 188.226 7.77C188.546 7.77 188.896 7.8 189.276 7.86C189.656 7.92 190.026 8.03 190.386 8.19C190.746 8.35 191.066 8.58 191.346 8.88C191.626 9.18 191.846 9.57 192.006 10.05H192.186L193.536 8.1ZM190.176 10.71C189.696 10.71 189.296 10.97 188.976 11.49C188.656 11.99 188.396 12.58 188.196 13.26C187.996 13.94 187.846 14.62 187.746 15.3C187.666 15.96 187.626 16.45 187.626 16.77C187.626 17.17 187.686 17.51 187.806 17.79C187.946 18.05 188.186 18.18 188.526 18.18C188.726 18.18 188.916 18.13 189.096 18.03C189.296 17.93 189.476 17.82 189.636 17.7C189.816 17.56 189.966 17.42 190.086 17.28C190.226 17.14 190.326 17.03 190.386 16.95L191.496 11.7C191.336 11.48 191.146 11.26 190.926 11.04C190.726 10.82 190.476 10.71 190.176 10.71Z" fill="#FF7800"/>
</svg>
