<svg width="36" height="35" viewBox="0 0 36 35" fill="none" xmlns="http://www.w3.org/2000/svg">
<path d="M18.0611 34.4496C8.74297 34.4496 1.18199 26.8709 1.18199 17.5705C1.18199 8.27013 8.76072 0.691406 18.0611 0.691406C27.3615 0.691406 34.9402 8.27013 34.9402 17.5705C34.9402 26.8709 27.3615 34.4496 18.0611 34.4496Z" fill="white"/>
<path d="M18.061 1.135C27.1484 1.135 34.4963 8.50074 34.4963 17.5704C34.4963 26.64 27.1306 34.0057 18.061 34.0057C8.99134 34.0057 1.6256 26.64 1.6256 17.5704C1.6256 8.50074 8.99134 1.135 18.061 1.135ZM18.061 0.247559C8.51213 0.247559 0.738159 8.02152 0.738159 17.5704C0.738159 27.1192 8.51213 34.8932 18.061 34.8932C27.6098 34.8932 35.3838 27.1192 35.3838 17.5704C35.3838 8.02152 27.6098 0.247559 18.061 0.247559Z" fill="#F15A29"/>
<path d="M18.0611 31.4679C25.7364 31.4679 31.9584 25.2459 31.9584 17.5706C31.9584 9.89537 25.7364 3.67334 18.0611 3.67334C10.3858 3.67334 4.1638 9.89537 4.1638 17.5706C4.1638 25.2459 10.3858 31.4679 18.0611 31.4679Z" fill="#FF7800"/>
<path d="M23.155 13.2932C22.7645 12.5832 22.1966 12.0152 21.4334 11.6248C20.6702 11.2343 19.7827 11.0391 18.7356 11.0391H13.7481C13.4819 11.0391 13.2689 11.252 13.2689 11.5183V24.5459C13.2689 24.8121 13.4819 25.0251 13.7481 25.0251H15.6828C15.949 25.0251 16.162 24.8121 16.162 24.5459V20.9429C16.162 20.6767 16.375 20.4637 16.6412 20.4637H18.6646C19.7295 20.4637 20.6347 20.2684 21.3979 19.878C22.1611 19.4875 22.7468 18.9373 23.1372 18.2273C23.5455 17.5174 23.7407 16.7009 23.7407 15.778C23.7407 14.8551 23.5455 14.0386 23.155 13.3109V13.2932ZM20.4749 17.0027C20.2797 17.3576 19.9957 17.6239 19.623 17.8191C19.2325 18.0143 18.771 18.1208 18.2031 18.1208H16.6412C16.375 18.1208 16.162 17.9078 16.162 17.6416V13.8966C16.162 13.6304 16.375 13.4174 16.6412 13.4174H18.2031C18.771 13.4174 19.2503 13.5061 19.623 13.7014C20.0135 13.8966 20.2974 14.1629 20.4749 14.5178C20.6702 14.8728 20.7589 15.281 20.7589 15.7602C20.7589 16.2395 20.6702 16.6477 20.4749 17.0027Z" fill="white"/>
</svg>
