<svg width="31" height="43" viewBox="0 0 31 43" fill="none" xmlns="http://www.w3.org/2000/svg">
<g clip-path="url(#clip0_1358_43)">
<path d="M30.4762 39.8997L22.6667 18.9429H12.873L21.8334 43L25.135 38.9165L30.4762 39.8997Z" fill="#FF7800"/>
<path d="M0 39.8997L7.80952 18.9429H17.6032L8.64286 43L5.34127 38.9165L0 39.8997Z" fill="#FF7800"/>
<path d="M15.5 30.9714C24.0604 30.9714 31 24.0382 31 15.4857C31 6.93319 24.0604 0 15.5 0C6.93959 0 0 6.93319 0 15.4857C0 24.0382 6.93959 30.9714 15.5 30.9714Z" fill="#F9AF78"/>
</g>
<path d="M14.9648 22.1758C12.1699 22.1758 10.166 20.6289 10.1133 18.4141H12.7852C12.8379 19.3633 13.752 19.9961 14.9824 19.9961C16.248 19.9961 17.1621 19.2754 17.1445 18.2559C17.1621 17.2188 16.2305 16.4805 14.7363 16.4805H13.5586V14.5293H14.7363C15.9844 14.5293 16.8633 13.8438 16.8633 12.8418C16.8633 11.875 16.125 11.207 15 11.207C13.875 11.207 12.9434 11.8398 12.9082 12.8066H10.377C10.4121 10.6094 12.3984 9.09766 15 9.09766C17.6543 9.09766 19.4297 10.6621 19.4121 12.6836C19.4297 14.1074 18.4277 15.127 17.0039 15.373V15.4785C18.8672 15.707 19.9043 16.8496 19.8867 18.4316C19.9043 20.6113 17.8301 22.1758 14.9648 22.1758Z" fill="black"/>
<defs>
<clipPath id="clip0_1358_43">
<rect width="31" height="43" fill="white"/>
</clipPath>
</defs>
</svg>
