<svg width="31" height="43" viewBox="0 0 31 43" fill="none" xmlns="http://www.w3.org/2000/svg">
<g clip-path="url(#clip0_1358_42)">
<path d="M30.4762 39.8997L22.6667 18.9429H12.873L21.8334 43L25.135 38.9165L30.4762 39.8997Z" fill="#FF7800"/>
<path d="M0 39.8997L7.80952 18.9429H17.6032L8.64286 43L5.34127 38.9165L0 39.8997Z" fill="#FF7800"/>
<path d="M15.5 30.9714C24.0604 30.9714 31 24.0382 31 15.4857C31 6.93319 24.0604 0 15.5 0C6.93959 0 0 6.93319 0 15.4857C0 24.0382 6.93959 30.9714 15.5 30.9714Z" fill="#DBDBD7"/>
</g>
<path d="M11.0088 22L10.9912 20.084L15.5615 15.8828C16.7568 14.7402 17.3896 14.0371 17.3896 13.0352C17.3896 11.9102 16.5283 11.207 15.3682 11.207C14.1729 11.207 13.3994 11.9629 13.3994 13.1758H10.8857C10.8682 10.6797 12.7139 9.09766 15.4033 9.09766C18.1279 9.09766 19.9385 10.6445 19.9385 12.8594C19.9385 14.3008 19.2354 15.4961 16.6162 17.8691L14.6826 19.75V19.8203H20.1143V22H11.0088Z" fill="black"/>
<defs>
<clipPath id="clip0_1358_42">
<rect width="31" height="43" fill="white"/>
</clipPath>
</defs>
</svg>
