<svg width="31" height="43" viewBox="0 0 31 43" fill="none" xmlns="http://www.w3.org/2000/svg">
<g clip-path="url(#clip0_1358_41)">
<path d="M30.4762 39.8997L22.6667 18.9429H12.873L21.8334 43L25.135 38.9165L30.4762 39.8997Z" fill="#FF7800"/>
<path d="M0 39.8997L7.80952 18.9429H17.6032L8.64286 43L5.34127 38.9165L0 39.8997Z" fill="#FF7800"/>
<path d="M15.5 30.9714C24.0604 30.9714 31 24.0382 31 15.4857C31 6.93319 24.0604 0 15.5 0C6.93959 0 0 6.93319 0 15.4857C0 24.0382 6.93959 30.9714 15.5 30.9714Z" fill="#F7EA4C"/>
</g>
<path d="M17.4863 9.27344V22H14.832V11.7871H14.7617L11.8438 13.6152V11.2773L14.9902 9.27344H17.4863Z" fill="black"/>
<defs>
<clipPath id="clip0_1358_41">
<rect width="31" height="43" fill="white"/>
</clipPath>
</defs>
</svg>
