<svg width="25" height="24" viewBox="0 0 25 24" fill="none" xmlns="http://www.w3.org/2000/svg">
<path d="M3.35231 16.5188L7.4769 20.626C7.72508 20.8731 8.12746 20.8731 8.37564 20.626L19.305 9.74281C19.5532 9.49568 19.5532 9.095 19.305 8.84787L15.1804 4.74072C14.9322 4.49359 14.5299 4.49359 14.2817 4.74072L3.35231 15.6239C3.10413 15.871 3.10413 16.2717 3.35231 16.5188Z" fill="#B9B9B9"/>
<path d="M5.9039 21.5261L2.4313 18.0681C2.09085 17.7291 1.50074 17.8873 1.36456 18.3394L0.0254516 23.1307C-0.110729 23.6053 0.320514 24.0347 0.819841 23.9217L5.63153 22.5883C6.10816 22.4527 6.26704 21.8651 5.9039 21.5261Z" fill="#B9B9B9"/>
<path d="M20.5202 7.59104L16.4117 3.49988C16.1549 3.24418 16.171 2.84465 16.4117 2.60494L18.161 0.862996C18.6425 0.383562 19.4129 0.383564 19.8943 0.862997L23.1683 4.12315C23.6498 4.60258 23.6498 5.36967 23.1683 5.8491L21.419 7.59104C21.1622 7.84674 20.761 7.83076 20.5202 7.59104Z" fill="#B9B9B9"/>
</svg>
