<svg width="51" height="44" viewBox="0 0 51 44" fill="none" xmlns="http://www.w3.org/2000/svg">
<path d="M46.907 9.17383H4.11077C3.86292 9.17383 3.66199 9.37516 3.66199 9.62352V42.5948C3.66199 42.8432 3.86292 43.0445 4.11077 43.0445H46.907C47.1548 43.0445 47.3558 42.8432 47.3558 42.5948V9.62352C47.3558 9.37516 47.1548 9.17383 46.907 9.17383Z" fill="#FFF4DF"/>
<path d="M46.8891 9.6235V42.5948H4.11083V9.6235H46.907M46.8891 8.72412H4.11083C3.60819 8.72412 3.21326 9.11985 3.21326 9.6235V42.5948C3.21326 43.0985 3.60819 43.4942 4.11083 43.4942H46.907C47.4097 43.4942 47.8046 43.0985 47.8046 42.5948V9.6235C47.8046 9.11985 47.4097 8.72412 46.907 8.72412H46.8891Z" fill="#F15A29"/>
<path d="M24.6293 17.9878H9.63985C8.8467 17.9878 8.20374 18.6321 8.20374 19.4268V29.7697C8.20374 30.5644 8.8467 31.2087 9.63985 31.2087H24.6293C25.4224 31.2087 26.0654 30.5644 26.0654 29.7697V19.4268C26.0654 18.6321 25.4224 17.9878 24.6293 17.9878Z" fill="white" stroke="#FF7800" stroke-width="0.5" stroke-miterlimit="10"/>
<path d="M36.4593 17.9878C39.9778 17.9878 42.85 20.8478 42.85 24.3914V42.6129H30.0865V24.3914C30.0865 20.8658 32.9408 17.9878 36.4773 17.9878H36.4593Z" fill="#FF7800"/>
<path d="M47.2481 0.449707L50.5512 9.6234V14.4081H0.44873V9.6234L3.75179 0.449707H47.2481Z" fill="#FF7800" stroke="#F15A29" stroke-width="0.5" stroke-linecap="round" stroke-linejoin="round"/>
</svg>
