<svg width="27" height="27" viewBox="0 0 27 27" fill="none" xmlns="http://www.w3.org/2000/svg">
<path d="M6.58625 20.8784H0.66336C0.296995 20.8784 0 21.1741 0 21.5389V25.5494C0 25.9143 0.296995 26.21 0.66336 26.21H6.58625C6.95261 26.21 7.24961 25.9143 7.24961 25.5494V21.5389C7.24961 21.1741 6.95261 20.8784 6.58625 20.8784Z" fill="#B9B9B9"/>
<path d="M26.2028 16.5612H20.2799C19.9136 16.5612 19.6166 16.8569 19.6166 17.2217V25.5259C19.6166 25.8907 19.9136 26.1864 20.2799 26.1864H26.2028C26.5692 26.1864 26.8662 25.8907 26.8662 25.5259V17.2217C26.8662 16.8569 26.5692 16.5612 26.2028 16.5612Z" fill="#B9B9B9"/>
<path d="M16.3947 12.2203H10.4718C10.1055 12.2203 9.80847 12.5161 9.80847 12.8809V25.5495C9.80847 25.9143 10.1055 26.21 10.4718 26.21H16.3947C16.7611 26.21 17.0581 25.9143 17.0581 25.5495V12.8809C17.0581 12.5161 16.7611 12.2203 16.3947 12.2203Z" fill="#B9B9B9"/>
<path d="M13.8596 0.283096L15.0205 2.80737L17.7924 3.11406C18.1951 3.16124 18.361 3.65666 18.053 3.93976L15.9918 5.80347L16.5604 8.51648C16.6552 8.91753 16.205 9.22422 15.8497 9.03549L13.4331 7.66719L11.0166 9.03549C10.6612 9.24781 10.2348 8.91753 10.3058 8.51648L10.8744 5.80347L8.81328 3.93976C8.50529 3.65666 8.67113 3.16124 9.07389 3.11406L11.8458 2.80737L13.0067 0.283096C13.1725 -0.0943654 13.7174 -0.0943654 13.8833 0.283096H13.8596Z" fill="#B9B9B9"/>
</svg>
