<svg width="17" height="16" viewBox="0 0 17 16" fill="none" xmlns="http://www.w3.org/2000/svg">
<path d="M14.8434 2.24323C14.4768 1.84909 14.0417 1.53643 13.5627 1.32311C13.0837 1.10979 12.5704 1 12.0519 1C11.5335 1 11.0201 1.10979 10.5411 1.32311C10.0621 1.53643 9.62698 1.84909 9.26046 2.24323L8.86588 2.66735C8.66812 2.87991 8.3315 2.87991 8.13374 2.66735L7.73916 2.24323C6.99882 1.44747 5.9947 1.00041 4.94771 1.00041C3.90071 1.00041 2.89659 1.44747 2.15626 2.24323C1.41592 3.03899 1 4.11827 1 5.24365C1 6.36902 1.41592 7.44831 2.15626 8.24407L8.13374 14.669C8.3315 14.8816 8.66812 14.8816 8.86588 14.669L14.8434 8.24407C15.21 7.85011 15.5009 7.38236 15.6994 6.86754C15.8979 6.35272 16 5.80091 16 5.24365C16 4.68638 15.8979 4.13457 15.6994 3.61975C15.5009 3.10493 15.21 2.63718 14.8434 2.24323Z" stroke="#FF7800" stroke-linecap="round" stroke-linejoin="round"/>
</svg>
