<svg width="20" height="19" viewBox="0 0 20 19" fill="none" xmlns="http://www.w3.org/2000/svg">
<path d="M5.81852 8.64995L9.27334 1C9.96055 1 10.6196 1.26866 11.1055 1.74687C11.5915 2.22509 11.8645 2.87369 11.8645 3.54998V6.94996H16.753C17.0034 6.94717 17.2514 6.99799 17.4799 7.0989C17.7084 7.1998 17.9118 7.34838 18.0761 7.53435C18.2404 7.72031 18.3617 7.9392 18.4315 8.17587C18.5013 8.41253 18.518 8.6613 18.4804 8.90495L17.2885 16.5549C17.2261 16.9603 17.0168 17.3298 16.6994 17.5953C16.382 17.8608 15.9777 18.0045 15.5611 17.9999H5.81852M5.81852 8.64995V17.9999M5.81852 8.64995H3.22741C2.76927 8.64995 2.3299 8.82906 2.00595 9.14787C1.68199 9.46668 1.5 9.89907 1.5 10.3499V16.2999C1.5 16.7508 1.68199 17.1832 2.00595 17.502C2.3299 17.8208 2.76927 17.9999 3.22741 17.9999H5.81852" stroke="#FF7800" stroke-width="1.5" stroke-linecap="round" stroke-linejoin="round"/>
</svg>
