<svg width="156" height="133" viewBox="0 0 156 133" fill="none" xmlns="http://www.w3.org/2000/svg">
<path d="M69.3994 14.885C73.2543 8.2491 82.8383 8.24908 86.6932 14.8849L146.436 117.727C150.308 124.394 145.499 132.75 137.789 132.75H18.3039C10.5941 132.75 5.78432 124.394 9.65706 117.727L69.3994 14.885Z" fill="#D9D9D9"/>
<path d="M79.8898 61C81.5721 61 82.9255 62.383 82.8891 64.0649L82.2637 92.9693C82.2284 94.6005 80.896 95.9044 79.2644 95.9044H77.3718C75.7426 95.9044 74.4111 94.604 74.3727 92.9752L73.6904 64.0708C73.6507 62.3867 75.005 61 76.6896 61H79.8898ZM78.3553 111C75.403 111 73 108.609 73 105.672C73 102.803 75.403 100.413 78.3553 100.413C81.1703 100.413 83.642 102.803 83.642 105.672C83.642 108.609 81.1703 111 78.3553 111Z" fill="white"/>
</svg>
